<svg xmlns="http://www.w3.org/2000/svg" viewBox="0 0 56 56" width="128px" height="128px"><path d="M49.5 8L49.5 8C48.7 3.5 38.3 0 25.5 0S2.3 3.5 1.5 8l0 0H1.5v0.5V20v0.5V21v11 0.5V33v12h0c0.7 4.5 11.2 8 24 8s23.2-3.5 24-8H49.5V33v-0.5V32 21v-0.5V20 8.5 8H49.5z" fill="#545E73"/><g fill="#38454F"><path d="M25.5 41c-13.3 0-24-3.8-24-8.5V45h0c0.7 4.5 11.2 8 24 8s23.2-3.5 24-8H49.5V32.5C49.5 37.2 38.8 41 25.5 41z"/><path d="M1.5 32v0.5c0-0.2 0-0.3 0-0.5H1.5z"/><path d="M49.5 32c0 0.2 0 0.3 0 0.5V32H49.5z"/></g><g fill="#556080"><path d="M25.5 29c-13.3 0-24-3.8-24-8.5V33h0c0.7 4.5 11.2 8 24 8s23.2-3.5 24-8H49.5V20.5C49.5 25.2 38.8 29 25.5 29z"/><path d="M1.5 20v0.5c0-0.2 0-0.3 0-0.5H1.5z"/><path d="M49.5 20c0 0.2 0 0.3 0 0.5V20H49.5z"/></g><ellipse cx="25.5" cy="8.5" rx="24" ry="8.5" fill="#91BAE1"/><g fill="#8697CB"><path d="M25.5 17c-13.3 0-24-3.8-24-8.5V21h0c0.7 4.5 11.2 8 24 8s23.2-3.5 24-8H49.5V8.5C49.5 13.2 38.8 17 25.5 17z"/><path d="M1.5 8v0.5c0-0.2 0-0.3 0-0.5H1.5z"/><path d="M49.5 8C49.5 8.2 49.5 8.3 49.5 8.5V8H49.5z"/></g><circle cx="42.5" cy="44" r="12" fill="#26B999"/><path d="M49.1 38.2c-0.5-0.3-1.1-0.2-1.4 0.3l-5.6 8 -3.9-3.2c-0.4-0.4-1.1-0.3-1.4 0.1 -0.4 0.4-0.3 1.1 0.1 1.4l4.8 3.9c0.2 0.1 0.4 0.2 0.6 0.2 0 0 0.1 0 0.1 0 0.3 0 0.5-0.2 0.7-0.4l6.2-8.9C49.6 39.1 49.5 38.5 49.1 38.2z" fill="#FFF"/></svg>